<svg xmlns="http://www.w3.org/2000/svg" viewBox="0 0 586.17 145">
    <defs>
        <style>.cls-1{fill:#fff;}.cls-2{fill:#f78721;}</style>
    </defs>
    <title>koff-logo</title>
    <g id="Layer_2" data-name="Layer 2">
        <g id="Layer_1-2" data-name="Layer 1">
            <polygon class="cls-1"
                     points="0 5.83 0 141.83 45.04 141.83 44.9 108.52 55.17 97.33 88.67 141.83 141.67 141.83 85.33 65.5 138.88 5.88 89.13 5.79 45.04 54.92 45 5.83 0 5.83"/>
            <path class="cls-1"
                  d="M213.42,0C170.94,0,136.5,32,136.5,71.5S170.94,143,213.42,143s76.92-32,76.92-71.5S255.9,0,213.42,0Zm-.08,107c-17,0-30.83-15.71-30.83-35.08s13.8-35.08,30.83-35.08,30.83,15.71,30.83,35.08S230.36,107,213.33,107Z"/>
            <polygon class="cls-1"
                     points="307 6.83 307 141.67 352.17 141.67 352.17 97.83 408.83 97.83 408.83 63.83 352 63.83 352 40.83 417.33 40.83 417.33 6.83 307 6.83"/>
            <polygon class="cls-1"
                     points="431 6.83 431 141.67 476.17 141.67 476.17 97.83 532.83 97.83 532.83 63.83 476 63.83 476 40.83 541.33 40.83 541.33 6.83 431 6.83"/>
            <circle class="cls-2" cx="568.08" cy="126.92" r="18.08"/>
        </g>
    </g>
</svg>